<svg width="40" height="40" viewBox="0 0 40 40" fill="none" xmlns="http://www.w3.org/2000/svg">
<path d="M21.2628 7.72807C22.1583 7.72464 23.0538 7.73364 23.9491 7.75507L24.1872 7.76366C24.4621 7.77348 24.7333 7.78575 25.061 7.80048C26.3667 7.86184 27.2576 8.06801 28.0394 8.37112C28.8493 8.68283 29.5316 9.10499 30.214 9.78731C30.8378 10.4004 31.3207 11.1421 31.6289 11.9607C31.932 12.7424 32.1382 13.6346 32.1996 14.9403C32.2143 15.2668 32.2266 15.5392 32.2364 15.8141L32.2438 16.0522C32.2656 16.947 32.275 17.8422 32.272 18.7373L32.2732 19.6528V21.2604C32.2762 22.1559 32.2668 23.0515 32.245 23.9467L32.2376 24.1848C32.2278 24.4597 32.2155 24.7309 32.2008 25.0586C32.1394 26.3643 31.9308 27.2553 31.6289 28.037C31.3217 28.8565 30.8387 29.5987 30.214 30.2116C29.6003 30.8354 28.8583 31.3182 28.0394 31.6265C27.2576 31.9297 26.3667 32.1358 25.061 32.1972C24.7333 32.2119 24.4621 32.2242 24.1872 32.234L23.9491 32.2414C23.0538 32.2632 22.1583 32.2726 21.2628 32.2696L20.3473 32.2708H18.7409C17.8453 32.2739 16.9498 32.2644 16.0545 32.2426L15.8165 32.2352C15.5251 32.2247 15.2339 32.2124 14.9427 32.1984C13.637 32.1371 12.746 31.9284 11.9631 31.6265C11.1441 31.3189 10.4024 30.836 9.78969 30.2116C9.1651 29.5983 8.68181 28.8562 8.3735 28.037C8.07039 27.2553 7.86422 26.3643 7.80286 25.0586C7.78919 24.7674 7.77692 24.4761 7.76604 24.1848L7.7599 23.9467C7.73728 23.0515 7.72705 22.1559 7.72922 21.2604V18.7373C7.7258 17.8422 7.7348 16.947 7.75622 16.0522L7.76481 15.8141C7.77463 15.5392 7.7869 15.2668 7.80163 14.9403C7.86299 13.6334 8.06916 12.7436 8.37228 11.9607C8.68076 11.1417 9.165 10.4002 9.79092 9.78854C10.4032 9.16359 11.1445 8.67985 11.9631 8.37112C12.746 8.06801 13.6357 7.86184 14.9427 7.80048L15.8165 7.76366L16.0545 7.75753C16.9494 7.73491 17.8445 7.72468 18.7397 7.72685L21.2628 7.72807ZM20.0012 13.8641C19.1882 13.8526 18.381 14.0028 17.6266 14.3059C16.8721 14.6091 16.1854 15.0592 15.6064 15.6301C15.0274 16.2009 14.5677 16.8812 14.2539 17.6313C13.94 18.3814 13.7784 19.1864 13.7784 19.9994C13.7784 20.8125 13.94 21.6175 14.2539 22.3676C14.5677 23.1177 15.0274 23.798 15.6064 24.3688C16.1854 24.9397 16.8721 25.3898 17.6266 25.693C18.381 25.9961 19.1882 26.1463 20.0012 26.1348C21.6286 26.1348 23.1893 25.4884 24.34 24.3376C25.4907 23.1869 26.1372 21.6262 26.1372 19.9988C26.1372 18.3715 25.4907 16.8108 24.34 15.66C23.1893 14.5093 21.6286 13.8641 20.0012 13.8641ZM20.0012 16.3185C20.4903 16.3095 20.9762 16.398 21.4307 16.5789C21.8851 16.7598 22.2989 17.0294 22.648 17.3721C22.9971 17.7147 23.2744 18.1235 23.4637 18.5745C23.653 19.0255 23.7506 19.5097 23.7506 19.9988C23.7507 20.488 23.6533 20.9722 23.4642 21.4233C23.275 21.8743 22.9978 22.2832 22.6489 22.6259C22.2999 22.9687 21.8862 23.2385 21.4318 23.4195C20.9774 23.6006 20.4915 23.6893 20.0024 23.6804C19.026 23.6804 18.0896 23.2926 17.3992 22.6021C16.7087 21.9117 16.3208 20.9753 16.3208 19.9988C16.3208 19.0224 16.7087 18.086 17.3992 17.3956C18.0896 16.7051 19.026 16.3172 20.0024 16.3172L20.0012 16.3185ZM26.444 12.0233C26.0481 12.0391 25.6737 12.2075 25.3992 12.4933C25.1247 12.779 24.9714 13.1598 24.9714 13.556C24.9714 13.9523 25.1247 14.3331 25.3992 14.6188C25.6737 14.9045 26.0481 15.073 26.444 15.0888C26.8509 15.0888 27.241 14.9272 27.5287 14.6395C27.8164 14.3518 27.978 13.9617 27.978 13.5548C27.978 13.148 27.8164 12.7578 27.5287 12.4701C27.241 12.1824 26.8509 12.0208 26.444 12.0208V12.0233Z" fill="#F6F5F8"/>
</svg>
