<svg width="1024" height="1080" viewBox="0 0 1024 1080" fill="none" xmlns="http://www.w3.org/2000/svg">
<g opacity="0.03" clip-path="url(#clip0_2189_6914)">
<path d="M2.00022 1092.82C1.99939 1534.88 2.00027 2250.6 2.00027 2250.6L380.628 2250.6C496.32 2250.6 578.276 2187.45 601.495 2166.4C624.714 2145.35 696.152 2050.62 696.152 1976.94L696.152 798.111L296.489 798.111C233.384 798.111 156.461 832.99 96.6572 892.838C36.8538 952.686 2.00036 1019.14 2.00022 1092.82Z" stroke="white" stroke-width="2.37723"/>
<path d="M373 422.956C372.999 880.391 373 1621 373 1621L752.091 1621C867.924 1621 949.98 1555.65 973.227 1533.87C996.475 1512.09 1068 1414.07 1068 1337.83L1068 118L667.849 118C604.667 118 527.649 154.092 467.773 216.022C407.896 277.951 373 346.717 373 422.956Z" stroke="white" stroke-width="2.37723"/>
<path d="M2.00022 422.956C1.99939 880.391 2.00027 1621 2.00027 1621L380.546 1621C496.212 1621 578.15 1555.65 601.364 1533.87C624.578 1512.09 696 1414.07 696 1337.83L696 118L296.424 118C233.333 118 156.427 154.092 96.6365 216.022C36.8462 277.951 2.00036 346.717 2.00022 422.956Z" stroke="white" stroke-width="2.37723"/>
<path d="M372.848 -359.67C372.847 82.3922 372.848 798.111 372.848 798.111L751.476 798.111C867.168 798.111 949.123 734.96 972.342 713.909C995.561 692.859 1067 598.131 1067 524.454L1067 -654.377L667.336 -654.377C604.232 -654.377 527.308 -619.498 467.505 -559.65C407.702 -499.802 372.848 -433.347 372.848 -359.67Z" stroke="white" stroke-width="2.37723"/>
</g>
<line x1="2" y1="434" x2="2.00003" y2="1158" stroke="url(#paint0_linear_2189_6914)" stroke-width="2"/>
<path d="M1.99902 1158C1.99902 1157.67 2.00043 1092.33 2.00185 1092C2.31587 1018.72 37.124 952.304 96.6567 892.727C156.46 832.879 233.384 797.999 296.488 797.999C443.732 797.999 637.5 797.999 637.5 797.999" stroke="url(#paint1_linear_2189_6914)" stroke-width="2.37723"/>
<defs>
<linearGradient id="paint0_linear_2189_6914" x1="0.5" y1="434" x2="0.499899" y2="9184.54" gradientUnits="userSpaceOnUse">
<stop stop-color="#2A2B2C"/>
<stop offset="1" stop-color="#D47202"/>
</linearGradient>
<linearGradient id="paint1_linear_2189_6914" x1="636.998" y1="798" x2="-3918.5" y2="2988" gradientUnits="userSpaceOnUse">
<stop stop-color="#2A2B2C"/>
<stop offset="1" stop-color="#D47202"/>
</linearGradient>
<clipPath id="clip0_2189_6914">
<rect width="2721" height="1066" fill="white" transform="translate(1 2069) rotate(-90)"/>
</clipPath>
</defs>
</svg>
