<svg width="40" height="40" viewBox="0 0 40 40" fill="none" xmlns="http://www.w3.org/2000/svg">
<path d="M17.0418 24.4365L24.7209 19.9978L17.0418 15.559V24.4365ZM34.1459 12.8513C34.3382 13.5467 34.4714 14.4789 34.5602 15.6626C34.6638 16.8462 34.7081 17.8672 34.7081 18.7549L34.7969 19.9978C34.7969 23.2381 34.5602 25.6202 34.1459 27.1442C33.776 28.4758 32.9178 29.334 31.5862 29.7039C30.8908 29.8962 29.6183 30.0294 27.6653 30.1182C25.7418 30.2217 23.9811 30.2661 22.3535 30.2661L20.001 30.3549C13.8015 30.3549 9.93977 30.1182 8.41579 29.7039C7.08416 29.334 6.226 28.4758 5.8561 27.1442C5.66375 26.4488 5.53059 25.5166 5.44181 24.333C5.33824 23.1493 5.29385 22.1284 5.29385 21.2406L5.20508 19.9978C5.20508 16.7575 5.44181 14.3753 5.8561 12.8513C6.226 11.5197 7.08416 10.6615 8.41579 10.2916C9.1112 10.0993 10.3837 9.96613 12.3367 9.87736C14.2602 9.77379 16.0209 9.7294 17.6484 9.7294L20.001 9.64062C26.2005 9.64062 30.0622 9.87736 31.5862 10.2916C32.9178 10.6615 33.776 11.5197 34.1459 12.8513Z" fill="#F6F5F8"/>
</svg>
